<svg id="Layer_1" data-name="Layer 1" xmlns="http://www.w3.org/2000/svg" viewBox="0 0 910.84 243.05"><path d="M108,68.07v87.86c0,13,6.63,20.65,21.82,20.65h23.38c14.8,0,21.62-7.6,21.62-20.65V144.15h22.6v13.53c0,27.67-14.61,41.89-42.66,41.89H127.05c-28.06,0-42.47-14.22-42.47-41.89V68.07Z" transform="translate(-84.58 -65.73)"/><path d="M197.92,121.24h-23V94.37c0-17.14,9.74-28.64,30.2-28.64,18.31,0,26.49,9.36,32,24.36l38.38,84c1.55,3.12,4.08,5.45,8.37,5.45,4.87,0,7.79-2.92,7.79-7.4v-104h23.19v105c0,17.34-9.94,28.84-30.2,28.84-18.31,0-26.69-9.35-32.14-24.35l-38.38-84C212.34,89.7,210,88,205.91,88c-5.26,0-8,2.92-8,7.59Z" transform="translate(-84.58 -65.73)"/><path d="M360.77,68.07l9.74,102.67c.59,5.65,2.93,8.76,8,8.76,4.48,0,7.21-2.33,8.18-7.2l15.59-80.66c3.31-16.94,13.05-25.91,30.19-25.91s26.3,9,29.42,25.91l14.61,80.66c.77,4.67,3.7,7.2,8.38,7.2,5.06,0,7.4-3.11,8-8.76L504,68.07h24l-12.27,104c-1.95,17.34-10.14,29.81-30.78,29.81-16.56,0-26.89-8.18-30.2-26.69L440.25,95c-.78-4.68-3.7-7-8-7s-7,2.33-8,7l-15.39,80.26c-3.51,17.92-13.44,26.69-31,26.69-20.26,0-28.05-12.08-30-29.81l-11.3-104Z" transform="translate(-84.58 -65.73)"/><path d="M573.1,68.07v131.5h-23V68.07Z" transform="translate(-84.58 -65.73)"/><path d="M675.76,68.07c29.61,0,42.27,18.32,42.27,39.35,0,16.37-7.79,33.9-27.86,39.55l30.59,52.6H695.24l-30-50.85H631c-2.14,0-3.31,1-3.31,3.31v47.54h-23v-52c0-14.81,6.23-20.85,20.65-20.85h51.24c13.05,0,18.31-9,18.31-18.31s-5.65-17.34-18.31-17.34H604.46v-23Z" transform="translate(-84.58 -65.73)"/><path d="M848.93,68.07v23H783.09c-13.83,0-19.87,6.43-19.87,16.56,0,10.71,6.82,15.58,20.06,15.58H848v20.85H782.7c-13.24,0-20.07,5.26-20.07,16,0,10.33,6.43,16.56,19.88,16.56h66.62v23H782.51c-31.17,0-43.84-15.39-43.84-35.84,0-15,6.82-25.14,18.9-30.2-12.27-5.07-18.51-15.2-18.51-29.61,0-21,13.05-35.85,44-35.85Z" transform="translate(-84.58 -65.73)"/><path d="M936.2,68.07c38.38,0,59.22,21.43,59.22,65.85,0,44.22-20.65,65.65-59.22,65.65H889.83c-7.4,0-10.91-3.51-10.91-10.71V78.79c0-7.21,3.51-10.72,10.91-10.72ZM901.91,174.25c0,1.75.78,2.33,2.53,2.33H936.2c25.52,0,36.23-12.66,36.23-42.86,0-30-10.71-42.66-36.23-42.66H904.44c-1.75,0-2.53.58-2.53,2.34Z" transform="translate(-84.58 -65.73)"/><path d="M256.76,308V263.09h21.37c10.58,0,17.05,3.1,17.05,12.26v20.29c0,9.17-6.47,12.33-17.05,12.33Zm33-31.74c0-7.35-5.26-8.42-11.66-8.42h-16v35.31h16c6.4,0,11.66-1.14,11.66-8.29Z" transform="translate(-84.58 -65.73)"/><path d="M335.48,295h-22L308,308a18.5,18.5,0,0,1-5.46,0l19.34-44.88a18,18,0,0,1,5.39,0L346.54,308a19.46,19.46,0,0,1-5.6,0Zm-11.05-26.09-9.1,21.64H333.6Z" transform="translate(-84.58 -65.73)"/><path d="M361.91,270.57V308a18.1,18.1,0,0,1-5.4,0V263.09a22.84,22.84,0,0,1,6.07,0l28.1,38.14V263.09a18.1,18.1,0,0,1,5.4,0V308a25.46,25.46,0,0,1-6.41,0Z" transform="translate(-84.58 -65.73)"/><path d="M408.82,274.48c0-9.37,7.75-12.4,20-12.4a90.52,90.52,0,0,1,15.3,1.14,9.83,9.83,0,0,1,0,4.45,113,113,0,0,0-14.62-.88c-8.43,0-15.3.95-15.3,8.56v20.09c0,7.48,6.87,8.49,15.3,8.49a63.18,63.18,0,0,0,14.82-1.82,15.21,15.21,0,0,1,.68,4.45,62,62,0,0,1-16.18,2.22c-12.26,0-20-3-20-12.4Z" transform="translate(-84.58 -65.73)"/><path d="M456.27,308V263.09h31.67a10.1,10.1,0,0,1,0,4.51H461.66v15.3h25.61a10.14,10.14,0,0,1,0,4.52H461.66v16h26.28a10.41,10.41,0,0,1,0,4.58Z" transform="translate(-84.58 -65.73)"/><path d="M528.85,267.6H512a12.66,12.66,0,0,1,0-4.51h39a12.66,12.66,0,0,1,0,4.51H534.25V308a18.1,18.1,0,0,1-5.4,0Z" transform="translate(-84.58 -65.73)"/><path d="M593.35,287.28h-27.9V308a18,18,0,0,1-5.39,0V263.09a18,18,0,0,1,5.39,0V282.5h27.9V263.09a18.1,18.1,0,0,1,5.4,0V308a18.1,18.1,0,0,1-5.4,0Z" transform="translate(-84.58 -65.73)"/><path d="M612.77,308V263.09h31.67a10.1,10.1,0,0,1,0,4.51H618.16v15.3h25.61a10.14,10.14,0,0,1,0,4.52H618.16v16h26.28a10.41,10.41,0,0,1,0,4.58Z" transform="translate(-84.58 -65.73)"/><path d="M685,295h-22l-5.46,13a18.5,18.5,0,0,1-5.46,0l19.35-44.88a18,18,0,0,1,5.39,0L696,308a19.39,19.39,0,0,1-5.59,0ZM673.9,268.88l-9.1,21.64h18.26Z" transform="translate(-84.58 -65.73)"/><path d="M711.1,267.6H694.25a12.66,12.66,0,0,1,0-4.51h39a12.66,12.66,0,0,1,0,4.51H716.5V308a18.1,18.1,0,0,1-5.4,0Z" transform="translate(-84.58 -65.73)"/><path d="M779.18,278.66c0,6.6-4,9.84-10.65,10.92,4.65,5.66,8.29,12.46,11.19,18.39a20.37,20.37,0,0,1-5.73,0,97.41,97.41,0,0,0-11.19-17.92H747.7V308a18,18,0,0,1-5.39,0V263.09h19.88c10.45,0,17,3.1,17,11.93Zm-5.4-2.77c0-7.14-5.52-8.08-12.06-8.08h-14v17.65h14c6.61,0,12.06-.94,12.06-7.54Z" transform="translate(-84.58 -65.73)"/><path d="M791.31,308V263.09H823a10.4,10.4,0,0,1,0,4.51H796.7v15.3h25.61a10.14,10.14,0,0,1,0,4.52H796.7v16H823a10.72,10.72,0,0,1,0,4.58Z" transform="translate(-84.58 -65.73)"/></svg>